# 3ds Max Wavefront OBJ Exporter v0.97b - (c)2007 guruware
# File Created: 08.02.2021 03:00:28

mtllib FlameThrower_Low.mtl

#
# object Cylinder001
#

v  4.1561 0.0000 0.1311
v  2.9126 0.0000 -2.8710
v  2.9126 5.7227 -2.8710
v  4.1561 5.7227 0.1311
v  -0.0894 0.0000 -4.1144
v  -0.0894 5.7227 -4.1144
v  -3.0915 0.0000 -2.8710
v  -3.0915 5.7227 -2.8710
v  -4.3349 0.0000 0.1311
v  -4.3349 5.7227 0.1311
v  -3.0915 0.0000 3.1331
v  -3.0915 5.7227 3.1331
v  -0.0894 0.0000 4.3766
v  -0.0894 5.7227 4.3766
v  2.9126 0.0000 3.1331
v  2.9126 5.7227 3.1331
v  3.6416 6.2372 0.1311
v  2.5488 6.2372 -2.5072
v  2.3950 6.2372 -2.3534
v  3.4242 6.2372 0.1311
v  -0.0894 6.2372 -3.6000
v  -0.0894 6.2372 -3.3825
v  -2.7277 6.2372 -2.5072
v  -2.5739 6.2372 -2.3534
v  -3.8205 6.2372 0.1311
v  -3.6030 6.2372 0.1311
v  -2.7277 6.2372 2.7693
v  -2.5739 6.2372 2.6155
v  -0.0894 6.2372 3.8621
v  -0.0894 6.2372 3.6447
v  2.5488 6.2372 2.7693
v  2.3950 6.2372 2.6155
v  2.9097 5.7227 0.1311
v  2.0313 5.7227 -1.9896
v  2.0313 3.1280 -1.9896
v  2.9097 3.1280 0.1311
v  -0.0894 5.7227 -2.8680
v  -0.0894 3.1280 -2.8680
v  -2.2101 5.7227 -1.9896
v  -2.2101 3.1280 -1.9896
v  -3.0885 5.7227 0.1311
v  -3.0885 3.1280 0.1311
v  -2.2101 5.7227 2.2518
v  -2.2101 3.1280 2.2518
v  -0.0894 5.7227 3.1302
v  -0.0894 3.1280 3.1302
v  2.0313 5.7227 2.2518
v  2.0313 3.1280 2.2518
v  -0.0894 3.1280 0.1311
# 49 vertices

vn 1.0000 0.0000 -0.0000
vn 0.7071 0.0000 -0.7071
vn 0.6615 0.3532 -0.6615
vn 0.9356 0.3532 -0.0000
vn -0.0000 0.0000 -1.0000
vn -0.0000 0.3532 -0.9356
vn -0.7071 0.0000 -0.7071
vn -0.6615 0.3532 -0.6616
vn -1.0000 0.0000 0.0000
vn -0.9355 0.3532 0.0000
vn -0.7071 0.0000 0.7071
vn -0.6615 0.3532 0.6616
vn 0.0000 0.0000 1.0000
vn 0.0000 0.3532 0.9356
vn 0.7071 0.0000 0.7071
vn 0.6615 0.3532 0.6615
vn 0.4580 0.8890 0.0000
vn 0.3238 0.8890 -0.3238
vn -0.2091 0.9553 0.2091
vn -0.2956 0.9553 -0.0000
vn 0.0000 0.8890 -0.4580
vn 0.0000 0.9553 0.2956
vn -0.3238 0.8890 -0.3238
vn 0.2091 0.9553 0.2091
vn -0.4580 0.8890 0.0000
vn 0.2956 0.9553 -0.0000
vn -0.3238 0.8890 0.3238
vn 0.2091 0.9553 -0.2091
vn 0.0000 0.8890 0.4580
vn 0.0000 0.9553 -0.2956
vn 0.3238 0.8890 0.3238
vn -0.2091 0.9553 -0.2091
vn -0.9074 0.4202 -0.0000
vn -0.6416 0.4202 0.6416
vn -0.5490 0.6303 0.5490
vn -0.7764 0.6303 -0.0000
vn 0.0000 0.4202 0.9074
vn 0.0000 0.6303 0.7764
vn 0.6416 0.4202 0.6416
vn 0.5490 0.6303 0.5490
vn 0.9074 0.4202 -0.0000
vn 0.7764 0.6303 -0.0000
vn 0.6416 0.4202 -0.6416
vn 0.5490 0.6303 -0.5490
vn 0.0000 0.4202 -0.9074
vn 0.0000 0.6303 -0.7764
vn -0.6416 0.4202 -0.6416
vn -0.5490 0.6303 -0.5490
vn 0.0000 1.0000 -0.0000
# 49 vertex normals

vt 0.7500 0.0000 1.0000
vt 0.8750 0.0000 1.0000
vt 0.8750 0.9175 1.0000
vt 0.7500 0.9175 1.0000
vt -0.1250 0.0000 1.0000
vt 0.0000 0.0000 1.0000
vt 0.0000 0.9175 1.0000
vt -0.1250 0.9175 1.0000
vt 0.1250 0.0000 1.0000
vt 0.1250 0.9175 1.0000
vt 0.2500 0.0000 1.0000
vt 0.2500 0.9175 1.0000
vt 0.3750 0.0000 1.0000
vt 0.3750 0.9175 1.0000
vt 0.5000 0.0000 1.0000
vt 0.5000 0.9175 1.0000
vt 0.6250 0.0000 1.0000
vt 0.6250 0.9175 1.0000
vt 0.7500 1.0000 1.0000
vt 0.8750 1.0000 1.0000
vt 0.7803 1.0000 0.4142
vt 0.5214 1.0000 -0.4142
vt 0.2500 1.0000 -1.0000
vt 0.1250 1.0000 -1.0000
vt 0.2197 1.0000 -0.4142
vt 0.6250 1.0000 1.0000
vt -0.1174 0.6879 1.0000
vt -0.0076 0.6879 1.0000
vt 0.0076 0.6879 1.0000
vt 0.1174 0.6879 1.0000
vt 0.1326 0.6879 1.0000
vt 0.2424 0.6879 1.0000
vt 0.2576 0.6879 1.0000
vt 0.3674 0.6879 1.0000
vt 0.3826 0.6879 1.0000
vt 0.4924 0.6879 1.0000
vt 0.5076 0.6879 1.0000
vt 0.6174 0.6879 1.0000
vt 0.4741 1.0000 0.0976
vt 0.6509 1.0000 -0.0000
# 40 texture coords

o Cylinder001
g Cylinder001
usemtl wire_088088225
s 2
f 1/1/1 2/2/2 3/3/3 4/4/4 
s 4
f 2/5/2 5/6/5 6/7/6 3/8/3 
s 2
f 5/6/5 7/9/7 8/10/8 6/7/6 
s 4
f 7/9/7 9/11/9 10/12/10 8/10/8 
s 2
f 9/11/9 11/13/11 12/14/12 10/12/10 
s 4
f 11/13/11 13/15/13 14/16/14 12/14/12 
s 2
f 13/15/13 15/17/15 16/18/16 14/16/14 
s 4
f 15/17/15 1/1/1 4/4/4 16/18/16 
s 1
f 17/19/17 18/20/18 19/20/19 20/19/20 
f 18/20/18 21/21/21 22/21/22 19/20/19 
f 21/21/21 23/22/23 24/22/24 22/21/22 
f 23/22/23 25/23/25 26/23/26 24/22/24 
f 25/23/25 27/24/27 28/24/28 26/23/26 
f 27/24/27 29/25/29 30/25/30 28/24/28 
f 29/25/29 31/26/31 32/26/32 30/25/30 
f 31/26/31 17/19/17 20/19/20 32/26/32 
s 2
f 33/19/33 34/20/34 35/20/35 36/19/36 
s 4
f 34/20/34 37/21/37 38/21/38 35/20/35 
s 2
f 37/21/37 39/22/39 40/22/40 38/21/38 
s 4
f 39/22/39 41/23/41 42/23/42 40/22/40 
s 2
f 41/23/41 43/24/43 44/24/44 42/23/42 
s 4
f 43/24/43 45/25/45 46/25/46 44/24/44 
s 2
f 45/25/45 47/26/47 48/26/48 46/25/46 
s 4
f 47/26/47 33/19/33 36/19/36 48/26/48 
s 8
f 17/19/17 4/4/4 3/3/3 18/20/18 
s 16
f 18/27/18 3/8/3 6/7/6 21/28/21 
s 8
f 21/29/21 6/7/6 8/10/8 23/30/23 
s 16
f 23/31/23 8/10/8 10/12/10 25/32/25 
s 8
f 25/33/25 10/12/10 12/14/12 27/34/27 
s 16
f 27/35/27 12/14/12 14/16/14 29/36/29 
s 8
f 29/37/29 14/16/14 16/18/16 31/38/31 
s 16
f 31/26/31 16/18/16 4/4/4 17/19/17 
s 8
f 33/19/33 20/19/20 19/20/19 34/20/34 
s 16
f 34/20/34 19/20/19 22/21/22 37/21/37 
s 8
f 37/21/37 22/21/22 24/22/24 39/22/39 
s 16
f 39/22/39 24/22/24 26/23/26 41/23/41 
s 8
f 41/23/41 26/23/26 28/24/28 43/24/43 
s 16
f 43/24/43 28/24/28 30/25/30 45/25/45 
s 8
f 45/25/45 30/25/30 32/26/32 47/26/47 
s 16
f 47/26/47 32/26/32 20/19/20 33/19/33 
s off
f 35/20/35 49/39/49 36/19/36 
f 38/21/38 49/39/49 35/20/35 
f 40/22/40 49/40/49 38/21/38 
f 42/23/42 49/40/49 40/22/40 
f 44/24/44 49/39/49 42/23/42 
f 46/25/46 49/39/49 44/24/44 
f 48/26/48 49/39/49 46/25/46 
f 36/19/36 49/39/49 48/26/48 
# 40 polygons - 8 triangles

